<?xml version="1.0" encoding="UTF-8" standalone="no"?>
<svg
   version="1.1"
   x="0px"
   y="0px"
   width="103px"
   height="94px"
   viewBox="0 0 103 94"
   id="svg969"
   sodipodi:docname="bg.svg"
   inkscape:version="1.2.2 (732a01da63, 2022-12-09, custom)"
   xmlns:inkscape="http://www.inkscape.org/namespaces/inkscape"
   xmlns:sodipodi="http://sodipodi.sourceforge.net/DTD/sodipodi-0.dtd"
   xmlns="http://www.w3.org/2000/svg"
   xmlns:svg="http://www.w3.org/2000/svg"
   xmlns:rdf="http://www.w3.org/1999/02/22-rdf-syntax-ns#"
   xmlns:cc="http://creativecommons.org/ns#"
   xmlns:dc="http://purl.org/dc/elements/1.1/">
  <defs
     id="defs973" />
  <sodipodi:namedview
     id="namedview971"
     pagecolor="#ffffff"
     bordercolor="#000000"
     borderopacity="0.25"
     inkscape:showpageshadow="2"
     inkscape:pageopacity="0.0"
     inkscape:pagecheckerboard="0"
     inkscape:deskcolor="#d1d1d1"
     showgrid="false"
     inkscape:zoom="10.659574"
     inkscape:cx="51.690619"
     inkscape:cy="48.266467"
     inkscape:window-width="2560"
     inkscape:window-height="1376"
     inkscape:window-x="1920"
     inkscape:window-y="348"
     inkscape:window-maximized="1"
     inkscape:current-layer="svg969" />
  <title
     id="title34">Wikipedia logo version 2</title>
  <radialGradient
     id="SVGID_1_"
     cx="244.5713"
     cy="-427.1392"
     r="68.6868"
     gradientTransform="matrix(1,0,0,-1,-220.61097,-382.45881)"
     gradientUnits="userSpaceOnUse">
    <stop
       offset="0"
       stop-color="#FFF"
       id="stop36" />
    <stop
       offset=".4835"
       stop-color="#EAEAEB"
       id="stop38" />
    <stop
       offset=".9451"
       stop-color="#A9ABAE"
       id="stop40" />
    <stop
       offset="1"
       stop-color="#999B9E"
       id="stop42" />
  </radialGradient>
  <radialGradient
     id="SVGID_2_"
     cx="197.6416"
     cy="-371.8613"
     r="0"
     gradientTransform="matrix(1 0 0 -1 -213.7637 -386.502)"
     gradientUnits="userSpaceOnUse">
    <stop
       offset="0"
       stop-color="#FFF"
       id="stop47" />
    <stop
       offset=".4835"
       stop-color="#EAEAEB"
       id="stop49" />
    <stop
       offset=".9451"
       stop-color="#A9ABAE"
       id="stop51" />
    <stop
       offset="1"
       stop-color="#999B9E"
       id="stop53" />
  </radialGradient>
  <linearGradient
     id="SVGID_3_"
     gradientUnits="userSpaceOnUse"
     x1="456.2744"
     y1="510.1602"
     x2="502.7757"
     y2="582.9122"
     gradientTransform="matrix(1 0 0 1 -406.1641 -500.3203)">
    <stop
       offset="0"
       stop-color="#8A8A8A"
       id="stop58" />
    <stop
       offset=".5687"
       stop-color="#606060"
       id="stop60" />
    <stop
       offset=".5914"
       stop-color="#FFF"
       id="stop62" />
    <stop
       offset=".6116"
       stop-color="#585858"
       id="stop64" />
    <stop
       offset="1"
       stop-color="#303030"
       id="stop66" />
  </linearGradient>
  <linearGradient
     id="SVGID_4_"
     gradientUnits="userSpaceOnUse"
     x1="425.2861"
     y1="502.9512"
     x2="445.7861"
     y2="598.6606"
     gradientTransform="matrix(1 0 0 1 -406.1641 -500.3203)">
    <stop
       offset="0"
       stop-color="#A8A9AB"
       id="stop71" />
    <stop
       offset="1"
       stop-color="#636668"
       id="stop73" />
  </linearGradient>
  <linearGradient
     id="SVGID_5_"
     gradientUnits="userSpaceOnUse"
     x1="421.0684"
     y1="504.3701"
     x2="441.068"
     y2="597.7433"
     gradientTransform="matrix(1 0 0 1 -406.1641 -500.3203)">
    <stop
       offset="0"
       stop-color="#A8A9AB"
       id="stop78" />
    <stop
       offset="1"
       stop-color="#636668"
       id="stop80" />
  </linearGradient>
  <linearGradient
     id="SVGID_6_"
     gradientUnits="userSpaceOnUse"
     x1="444.7598"
     y1="550.8145"
     x2="473.8418"
     y2="550.8145"
     gradientTransform="translate(-407.94823,-498.91539)">
    <stop
       offset="0"
       stop-color="#231F20"
       id="stop85" />
    <stop
       offset="1"
       stop-color="#474747"
       id="stop87" />
  </linearGradient>
  <linearGradient
     id="SVGID_7_"
     gradientUnits="userSpaceOnUse"
     x1="266.4922"
     y1="-395.2783"
     x2="295.9644"
     y2="-485.0349"
     gradientTransform="matrix(1 0 0 -1 -213.7637 -386.502)">
    <stop
       offset="0"
       stop-color="#FFF"
       id="stop112" />
    <stop
       offset=".0094"
       stop-color="#FCFCFC"
       id="stop114" />
    <stop
       offset=".0655"
       stop-color="#EEEEEE"
       id="stop116" />
    <stop
       offset=".1342"
       stop-color="#E5E5E5"
       id="stop118" />
    <stop
       offset=".2515"
       stop-color="#E3E3E3"
       id="stop120" />
    <stop
       offset=".3357"
       stop-color="#8A8A8A"
       id="stop122" />
    <stop
       offset=".4422"
       stop-color="#B8B8B8"
       id="stop124" />
    <stop
       offset="1"
       stop-color="#3B3B3B"
       id="stop126" />
  </linearGradient>
  <linearGradient
     id="SVGID_8_"
     gradientUnits="userSpaceOnUse"
     x1="460.4629"
     y1="512.5557"
     x2="509.5884"
     y2="573.3062"
     gradientTransform="matrix(1 0 0 1 -406.1641 -500.3203)">
    <stop
       offset="0"
       stop-color="#EFF0F0"
       id="stop131" />
    <stop
       offset=".5914"
       stop-color="#F0F1F2"
       id="stop133" />
    <stop
       offset=".599"
       stop-color="#787878"
       id="stop135" />
    <stop
       offset=".6456"
       stop-color="#EEEFF0"
       id="stop137" />
    <stop
       offset="1"
       stop-color="#D8D9DB"
       id="stop139" />
  </linearGradient>
  <linearGradient
     id="SVGID_9_"
     gradientUnits="userSpaceOnUse"
     x1="272.8721"
     y1="-392.8257"
     x2="302.4699"
     y2="-482.9646"
     gradientTransform="matrix(1 0 0 -1 -213.7637 -386.502)">
    <stop
       offset="0"
       stop-color="#FFF"
       id="stop144" />
    <stop
       offset="1"
       stop-color="#E4E5E6"
       id="stop146" />
  </linearGradient>
  <linearGradient
     id="SVGID_10_"
     gradientUnits="userSpaceOnUse"
     x1="444.6943"
     y1="510.9561"
     x2="469.7246"
     y2="592.0699"
     gradientTransform="translate(-408.22353,-498.83599)">
    <stop
       offset="0"
       stop-color="#FFF"
       id="stop151" />
    <stop
       offset=".7473"
       stop-color="#F9F9F9"
       id="stop153" />
    <stop
       offset="1"
       stop-color="#D5D7D8"
       id="stop155" />
  </linearGradient>
  <linearGradient
     id="SVGID_11_"
     gradientUnits="userSpaceOnUse"
     x1="390.042"
     y1="485.6797"
     x2="390.042"
     y2="485.6797"
     gradientTransform="matrix(1 0 0 1 -406.1641 -500.3203)">
    <stop
       offset="0"
       stop-color="#FFF"
       id="stop160" />
    <stop
       offset=".7473"
       stop-color="#F9F9F9"
       id="stop162" />
    <stop
       offset="1"
       stop-color="#D5D7D8"
       id="stop164" />
  </linearGradient>
  <linearGradient
     id="SVGID_12_"
     gradientUnits="userSpaceOnUse"
     x1="390.042"
     y1="485.6797"
     x2="390.042"
     y2="485.6797"
     gradientTransform="matrix(1 0 0 1 -406.1641 -500.3203)">
    <stop
       offset="0"
       stop-color="#FFF"
       id="stop169" />
    <stop
       offset=".7473"
       stop-color="#F9F9F9"
       id="stop171" />
    <stop
       offset="1"
       stop-color="#D5D7D8"
       id="stop173" />
  </linearGradient>
  <linearGradient
     id="SVGID_13_"
     gradientUnits="userSpaceOnUse"
     x1="274.5342"
     y1="-396.1577"
     x2="255.2091"
     y2="-490.1944"
     gradientTransform="matrix(1 0 0 -1 -213.7637 -386.502)">
    <stop
       offset="0"
       stop-color="#FFF"
       id="stop186" />
    <stop
       offset="1"
       stop-color="#E4E5E6"
       id="stop188" />
  </linearGradient>
  <linearGradient
     id="SVGID_14_"
     gradientUnits="userSpaceOnUse"
     x1="422.5586"
     y1="518.7568"
     x2="427.2878"
     y2="578.1768"
     gradientTransform="matrix(1 0 0 1 -406.1641 -500.3203)">
    <stop
       offset=".2198"
       stop-color="#989A9C"
       id="stop193" />
    <stop
       offset=".2527"
       stop-color="#FFF"
       id="stop195" />
  </linearGradient>
  <linearGradient
     id="SVGID_15_"
     gradientUnits="userSpaceOnUse"
     x1="237.3721"
     y1="-388.3604"
     x2="218.8474"
     y2="-478.5023"
     gradientTransform="matrix(1 0 0 -1 -213.7637 -386.502)">
    <stop
       offset="0"
       stop-color="#FFF"
       id="stop200" />
    <stop
       offset="1"
       stop-color="#E4E5E6"
       id="stop202" />
  </linearGradient>
  <linearGradient
     id="SVGID_16_"
     gradientUnits="userSpaceOnUse"
     x1="259.9063"
     y1="-479.3379"
     x2="259.8987"
     y2="-479.3752"
     gradientTransform="matrix(1 0 0 -1 -213.7637 -386.502)">
    <stop
       offset="0"
       stop-color="#FFF"
       id="stop207" />
    <stop
       offset="1"
       stop-color="#E4E5E6"
       id="stop209" />
  </linearGradient>
  <linearGradient
     id="SVGID_17_"
     gradientUnits="userSpaceOnUse"
     x1="268.9033"
     y1="-394.6382"
     x2="249.4966"
     y2="-489.0725"
     gradientTransform="matrix(1 0 0 -1 -213.7637 -386.502)">
    <stop
       offset="0"
       stop-color="#FFF"
       id="stop218" />
    <stop
       offset="1"
       stop-color="#E4E5E6"
       id="stop220" />
  </linearGradient>
  <linearGradient
     id="SVGID_18_"
     gradientUnits="userSpaceOnUse"
     x1="254.4561"
     y1="-391.5991"
     x2="235.0337"
     y2="-486.1104"
     gradientTransform="matrix(1 0 0 -1 -213.7637 -386.502)">
    <stop
       offset="0"
       stop-color="#FFF"
       id="stop225" />
    <stop
       offset="1"
       stop-color="#E4E5E6"
       id="stop227" />
  </linearGradient>
  <linearGradient
     id="SVGID_19_"
     gradientUnits="userSpaceOnUse"
     x1="262.6514"
     y1="-392.9692"
     x2="243.1559"
     y2="-487.8355"
     gradientTransform="matrix(1 0 0 -1 -213.7637 -386.502)">
    <stop
       offset="0"
       stop-color="#FFF"
       id="stop232" />
    <stop
       offset="1"
       stop-color="#E4E5E6"
       id="stop234" />
  </linearGradient>
  <linearGradient
     id="SVGID_20_"
     gradientUnits="userSpaceOnUse"
     x1="271.5479"
     y1="-390.9575"
     x2="251.1904"
     y2="-490.0176"
     gradientTransform="matrix(1 0 0 -1 -213.7637 -386.502)">
    <stop
       offset="0"
       stop-color="#FFF"
       id="stop239" />
    <stop
       offset="1"
       stop-color="#E4E5E6"
       id="stop241" />
  </linearGradient>
  <linearGradient
     id="SVGID_21_"
     gradientUnits="userSpaceOnUse"
     x1="274.6582"
     y1="-395.8442"
     x2="255.2559"
     y2="-490.2569"
     gradientTransform="matrix(1 0 0 -1 -213.7637 -386.502)">
    <stop
       offset="0"
       stop-color="#FFF"
       id="stop246" />
    <stop
       offset="1"
       stop-color="#E4E5E6"
       id="stop248" />
  </linearGradient>
  <linearGradient
     id="SVGID_22_"
     gradientUnits="userSpaceOnUse"
     x1="221.1826"
     y1="-454.5649"
     x2="221.373"
     y2="-454.5649"
     gradientTransform="matrix(1 0 0 -1 -213.7637 -386.502)">
    <stop
       offset="0"
       stop-color="#808080"
       id="stop277" />
    <stop
       offset=".0868"
       stop-color="#7A7A7A"
       id="stop279" />
    <stop
       offset=".36"
       stop-color="#6B6B6B"
       id="stop281" />
    <stop
       offset=".5192"
       stop-color="#686868"
       id="stop283" />
    <stop
       offset=".6377"
       stop-color="#5F5F5F"
       id="stop285" />
    <stop
       offset=".7431"
       stop-color="#4E4E4E"
       id="stop287" />
    <stop
       offset=".8408"
       stop-color="#383838"
       id="stop289" />
    <stop
       offset=".9324"
       stop-color="#1B1B1B"
       id="stop291" />
    <stop
       offset="1"
       stop-color="#000"
       id="stop293" />
  </linearGradient>
  <linearGradient
     id="SVGID_23_"
     gradientUnits="userSpaceOnUse"
     x1="221.4043"
     y1="-449.8027"
     x2="316.0254"
     y2="-449.8027"
     gradientTransform="matrix(1 0 0 -1 -213.7637 -386.502)">
    <stop
       offset="0"
       stop-color="#808080"
       id="stop298" />
    <stop
       offset=".0868"
       stop-color="#7A7A7A"
       id="stop300" />
    <stop
       offset=".3817"
       stop-color="#828282"
       id="stop302" />
    <stop
       offset=".5185"
       stop-color="#808080"
       id="stop304" />
    <stop
       offset=".5677"
       stop-color="#797979"
       id="stop306" />
    <stop
       offset=".6027"
       stop-color="#6E6E6E"
       id="stop308" />
    <stop
       offset=".608"
       stop-color="#6B6B6B"
       id="stop310" />
    <stop
       offset="1"
       stop-color="#4E4E4E"
       id="stop312" />
  </linearGradient>
  <linearGradient
     id="SVGID_24_"
     gradientUnits="userSpaceOnUse"
     x1="214.5928"
     y1="-431.356"
     x2="314.4043"
     y2="-431.356"
     gradientTransform="matrix(1 0 0 -1 -213.7637 -386.502)">
    <stop
       offset="0"
       stop-color="#555555"
       id="stop317" />
    <stop
       offset="1"
       stop-color="#231F20"
       id="stop319" />
  </linearGradient>
  <linearGradient
     id="SVGID_25_"
     gradientUnits="userSpaceOnUse"
     x1="214.8965"
     y1="-410.8818"
     x2="306.501"
     y2="-410.8818"
     gradientTransform="matrix(1 0 0 -1 -213.7637 -386.502)">
    <stop
       offset="0"
       stop-color="#A0A0A0"
       id="stop324" />
    <stop
       offset=".0769"
       stop-color="#656767"
       id="stop326" />
    <stop
       offset="1"
       stop-color="#717375"
       id="stop328" />
  </linearGradient>
  <linearGradient
     id="SVGID_26_"
     gradientUnits="userSpaceOnUse"
     x1="217.6563"
     y1="-436.751"
     x2="217.6563"
     y2="-436.751"
     gradientTransform="matrix(1 0 0 -1 -213.7637 -386.502)">
    <stop
       offset="0"
       stop-color="#FFF"
       id="stop343" />
    <stop
       offset=".078"
       stop-color="#F4F4F4"
       id="stop345" />
    <stop
       offset=".3807"
       stop-color="#CECECE"
       id="stop347" />
    <stop
       offset=".5396"
       stop-color="#BFBFBF"
       id="stop349" />
    <stop
       offset=".8357"
       stop-color="#7C7C7C"
       id="stop351" />
    <stop
       offset=".8996"
       stop-color="#A8A8A8"
       id="stop353" />
    <stop
       offset=".9093"
       stop-color="#9A9A9A"
       id="stop355" />
    <stop
       offset=".9327"
       stop-color="#7D7D7D"
       id="stop357" />
    <stop
       offset=".9558"
       stop-color="#686868"
       id="stop359" />
    <stop
       offset=".9785"
       stop-color="#5B5B5B"
       id="stop361" />
    <stop
       offset="1"
       stop-color="#575757"
       id="stop363" />
  </linearGradient>
  <linearGradient
     id="SVGID_27_"
     gradientUnits="userSpaceOnUse"
     x1="214.3262"
     y1="-436.5107"
     x2="322.8717"
     y2="-424.4851"
     gradientTransform="matrix(1 0 0 -1 -213.7637 -386.502)">
    <stop
       offset="0"
       stop-color="#FFF"
       id="stop368" />
    <stop
       offset=".078"
       stop-color="#F4F4F4"
       id="stop370" />
    <stop
       offset=".3807"
       stop-color="#CECECE"
       id="stop372" />
    <stop
       offset=".5396"
       stop-color="#BFBFBF"
       id="stop374" />
    <stop
       offset=".8357"
       stop-color="#7C7C7C"
       id="stop376" />
    <stop
       offset=".8996"
       stop-color="#A8A8A8"
       id="stop378" />
    <stop
       offset=".9093"
       stop-color="#9A9A9A"
       id="stop380" />
    <stop
       offset=".9327"
       stop-color="#7D7D7D"
       id="stop382" />
    <stop
       offset=".9558"
       stop-color="#686868"
       id="stop384" />
    <stop
       offset=".9785"
       stop-color="#5B5B5B"
       id="stop386" />
    <stop
       offset="1"
       stop-color="#575757"
       id="stop388" />
  </linearGradient>
  <linearGradient
     id="SVGID_28_"
     gradientUnits="userSpaceOnUse"
     x1="213.8887"
     y1="-436.4771"
     x2="336.8819"
     y2="-422.851"
     gradientTransform="matrix(1 0 0 -1 -213.7637 -386.502)">
    <stop
       offset="0"
       stop-color="#FFF"
       id="stop393" />
    <stop
       offset=".078"
       stop-color="#F4F4F4"
       id="stop395" />
    <stop
       offset=".3807"
       stop-color="#CECECE"
       id="stop397" />
    <stop
       offset=".5396"
       stop-color="#BFBFBF"
       id="stop399" />
    <stop
       offset=".8357"
       stop-color="#7C7C7C"
       id="stop401" />
    <stop
       offset=".8996"
       stop-color="#A8A8A8"
       id="stop403" />
    <stop
       offset=".9093"
       stop-color="#9A9A9A"
       id="stop405" />
    <stop
       offset=".9327"
       stop-color="#7D7D7D"
       id="stop407" />
    <stop
       offset=".9558"
       stop-color="#686868"
       id="stop409" />
    <stop
       offset=".9785"
       stop-color="#5B5B5B"
       id="stop411" />
    <stop
       offset="1"
       stop-color="#575757"
       id="stop413" />
  </linearGradient>
  <linearGradient
     id="SVGID_29_"
     gradientUnits="userSpaceOnUse"
     x1="411.2539"
     y1="557.002"
     x2="507.2363"
     y2="537.6277"
     gradientTransform="matrix(1 0 0 1 -406.1641 -500.3203)">
    <stop
       offset="0"
       stop-color="#EDEDEE"
       id="stop418" />
    <stop
       offset=".4176"
       stop-color="#FFF"
       id="stop420" />
    <stop
       offset=".6264"
       stop-color="#F8F9F9"
       id="stop422" />
    <stop
       offset="1"
       stop-color="#BFC0C2"
       id="stop424" />
  </linearGradient>
  <linearGradient
     id="SVGID_30_"
     gradientUnits="userSpaceOnUse"
     x1="413.5137"
     y1="516.4121"
     x2="417.999"
     y2="516.4121"
     gradientTransform="matrix(1 0 0 1 -406.1641 -500.3203)">
    <stop
       offset="0"
       stop-color="#E2E3E4"
       id="stop435" />
    <stop
       offset=".5055"
       stop-color="#FFF"
       id="stop437" />
  </linearGradient>
  <linearGradient
     id="SVGID_31_"
     gradientUnits="userSpaceOnUse"
     x1="414.2451"
     y1="568.2656"
     x2="509.0055"
     y2="545.7273"
     gradientTransform="matrix(1 0 0 1 -406.1641 -500.3203)">
    <stop
       offset="0"
       stop-color="#EDEDEE"
       id="stop792" />
    <stop
       offset=".4176"
       stop-color="#FFF"
       id="stop794" />
    <stop
       offset=".6264"
       stop-color="#F8F9F9"
       id="stop796" />
    <stop
       offset=".9505"
       stop-color="#B2B4B6"
       id="stop798" />
  </linearGradient>
  <linearGradient
     id="SVGID_32_"
     gradientUnits="userSpaceOnUse"
     x1="416.6992"
     y1="578.5645"
     x2="511.8228"
     y2="555.9398"
     gradientTransform="matrix(1 0 0 1 -406.1641 -500.3203)">
    <stop
       offset="0"
       stop-color="#EDEDEE"
       id="stop803" />
    <stop
       offset=".4176"
       stop-color="#FFF"
       id="stop805" />
    <stop
       offset=".6264"
       stop-color="#F8F9F9"
       id="stop807" />
    <stop
       offset=".9505"
       stop-color="#B2B4B6"
       id="stop809" />
  </linearGradient>
  <linearGradient
     id="SVGID_33_"
     gradientUnits="userSpaceOnUse"
     x1="415.4736"
     y1="573.4199"
     x2="510.5869"
     y2="550.7977"
     gradientTransform="matrix(1 0 0 1 -406.1641 -500.3203)">
    <stop
       offset="0"
       stop-color="#EDEDEE"
       id="stop814" />
    <stop
       offset=".4176"
       stop-color="#FFF"
       id="stop816" />
    <stop
       offset=".6264"
       stop-color="#F8F9F9"
       id="stop818" />
    <stop
       offset=".9505"
       stop-color="#B2B4B6"
       id="stop820" />
  </linearGradient>
  <linearGradient
     id="SVGID_34_"
     gradientUnits="userSpaceOnUse"
     x1="414.7754"
     y1="570.4785"
     x2="509.8697"
     y2="547.861"
     gradientTransform="matrix(1 0 0 1 -406.1641 -500.3203)">
    <stop
       offset="0"
       stop-color="#EDEDEE"
       id="stop825" />
    <stop
       offset=".4176"
       stop-color="#FFF"
       id="stop827" />
    <stop
       offset=".6264"
       stop-color="#F8F9F9"
       id="stop829" />
    <stop
       offset=".9505"
       stop-color="#B2B4B6"
       id="stop831" />
  </linearGradient>
  <linearGradient
     id="SVGID_35_"
     gradientUnits="userSpaceOnUse"
     x1="414.915"
     y1="571.0664"
     x2="510.04"
     y2="548.4415"
     gradientTransform="matrix(1 0 0 1 -406.1641 -500.3203)">
    <stop
       offset="0"
       stop-color="#EDEDEE"
       id="stop836" />
    <stop
       offset=".4176"
       stop-color="#FFF"
       id="stop838" />
    <stop
       offset=".6264"
       stop-color="#F8F9F9"
       id="stop840" />
    <stop
       offset=".9505"
       stop-color="#B2B4B6"
       id="stop842" />
  </linearGradient>
  <linearGradient
     id="SVGID_36_"
     gradientUnits="userSpaceOnUse"
     x1="416.1035"
     y1="576.0654"
     x2="511.2286"
     y2="553.4405"
     gradientTransform="matrix(1 0 0 1 -406.1641 -500.3203)">
    <stop
       offset="0"
       stop-color="#EDEDEE"
       id="stop847" />
    <stop
       offset=".4176"
       stop-color="#FFF"
       id="stop849" />
    <stop
       offset=".6264"
       stop-color="#F8F9F9"
       id="stop851" />
    <stop
       offset=".9505"
       stop-color="#B2B4B6"
       id="stop853" />
  </linearGradient>
  <linearGradient
     id="SVGID_37_"
     gradientUnits="userSpaceOnUse"
     x1="412.6152"
     y1="535.3994"
     x2="501.5865"
     y2="514.8846"
     gradientTransform="matrix(1 0 0 1 -406.1641 -500.3203)">
    <stop
       offset="0"
       stop-color="#FFF"
       id="stop860" />
    <stop
       offset=".6538"
       stop-color="#FFF"
       id="stop862" />
    <stop
       offset="1"
       stop-color="#CBCCCE"
       id="stop864" />
  </linearGradient>
  <linearGradient
     id="SVGID_38_"
     gradientUnits="userSpaceOnUse"
     x1="390.042"
     y1="485.6797"
     x2="390.042"
     y2="485.6797"
     gradientTransform="matrix(1 0 0 1 -406.1641 -500.3203)">
    <stop
       offset="0"
       stop-color="#FFF"
       id="stop869" />
    <stop
       offset=".6538"
       stop-color="#FFF"
       id="stop871" />
    <stop
       offset="1"
       stop-color="#CBCCCE"
       id="stop873" />
  </linearGradient>
  <linearGradient
     id="SVGID_39_"
     gradientUnits="userSpaceOnUse"
     x1="231.2324"
     y1="-407.8711"
     x2="263.6191"
     y2="-407.8711"
     gradientTransform="matrix(1 0 0 -1 -213.7637 -386.502)">
    <stop
       offset="0"
       stop-color="#696969"
       id="stop890" />
    <stop
       offset=".3702"
       stop-color="#2E2E2E"
       id="stop892" />
    <stop
       offset=".4554"
       stop-color="#424242"
       id="stop894" />
    <stop
       offset=".6014"
       stop-color="#303030"
       id="stop896" />
    <stop
       offset=".6947"
       stop-color="#4A4A4A"
       id="stop898" />
    <stop
       offset="1"
       stop-color="#666666"
       id="stop900" />
  </linearGradient>
  <linearGradient
     id="SVGID_40_"
     gradientUnits="userSpaceOnUse"
     x1="231.623"
     y1="-407.063"
     x2="263.4941"
     y2="-407.063"
     gradientTransform="matrix(1 0 0 -1 -213.7637 -386.502)">
    <stop
       offset="0"
       stop-color="#525252"
       id="stop905" />
    <stop
       offset=".1856"
       stop-color="#333333"
       id="stop907" />
    <stop
       offset=".354"
       stop-color="#AEAEAE"
       id="stop909" />
    <stop
       offset=".4199"
       stop-color="#ADADAD"
       id="stop911" />
    <stop
       offset=".4276"
       stop-color="#9D9D9D"
       id="stop913" />
    <stop
       offset=".4433"
       stop-color="#818181"
       id="stop915" />
    <stop
       offset=".4611"
       stop-color="#6A6A6A"
       id="stop917" />
    <stop
       offset=".4814"
       stop-color="#585858"
       id="stop919" />
    <stop
       offset=".506"
       stop-color="#4C4C4C"
       id="stop921" />
    <stop
       offset=".539"
       stop-color="#444444"
       id="stop923" />
    <stop
       offset=".6166"
       stop-color="#424242"
       id="stop925" />
    <stop
       offset=".6684"
       stop-color="#454545"
       id="stop927" />
    <stop
       offset="1"
       stop-color="#BDBDBD"
       id="stop929" />
  </linearGradient>
  <linearGradient
     id="SVGID_41_"
     gradientUnits="userSpaceOnUse"
     x1="236.917"
     y1="-417.333"
     x2="235.8882"
     y2="-410.5272"
     gradientTransform="matrix(1 0 0 -1 -213.7637 -386.502)">
    <stop
       offset="0"
       stop-color="#969696"
       id="stop934" />
    <stop
       offset="1"
       stop-color="#000"
       id="stop936" />
  </linearGradient>
  <linearGradient
     id="SVGID_42_"
     gradientUnits="userSpaceOnUse"
     x1="428.7803"
     y1="532.0527"
     x2="429.5303"
     y2="524.4692"
     gradientTransform="matrix(1 0 0 1 -406.1641 -500.3203)">
    <stop
       offset="0"
       stop-color="#333333"
       id="stop945" />
    <stop
       offset=".431"
       stop-color="#000"
       id="stop947" />
    <stop
       offset="1"
       stop-color="#2E2E2E"
       id="stop949" />
  </linearGradient>
  <path
     style="opacity:0.5;fill:#333333"
     d="M17.159,8.189h0.117c-0.16,0.481-0.789,1.141-1.068,1.583c-0.156,0.248-0.252,0.572-0.474,0.751c0.038,0.043-0.003,0.003,0.04,0.04c0.088,0.052,0.813-0.139,0.95-0.236c0.082,0.015,0.076,0.011,0.12,0.039c0.042,0.07-0.481,0.991-0.595,1.109v0.04c0.196-0.023,0.502-0.056,0.634-0.16c0.383-0.299,0.47-0.937,0.75-1.346c-0.013-0.066-0.026-0.132-0.04-0.196c-0.222-0.04-0.681,0.02-0.87,0.157h-0.039c0.091-0.473,0.868-1.346,1.146-1.741c0.454-0.647,0.881-1.269,1.345-1.9c0.243-0.331,0.585-0.622,0.831-0.949c0.276-0.367,0.569-0.85,0.949-1.107V4.194h-0.158c-0.186,0.135-0.675,0.218-0.908,0.354c0.032,0.135,0.019,0.101,0.118,0.158c-0.139,0.386-0.598,0.673-0.832,0.991c-0.371,0.5-0.784,0.968-1.147,1.464c-0.123,0.164-0.205,0.421-0.356,0.553c-0.237,0.208-0.913,0.185-1.185,0.396h-0.08c0.056-0.332,0.907-1.392,1.147-1.622v-0.04c-0.408,0.057-0.724,0.273-0.989,0.473c0.044,0.091,0.037,0.073,0.12,0.12c-0.145,0.238-0.361,0.415-0.515,0.633c-0.197,0.275-0.305,0.602-0.514,0.871c0.014,0.04,0.028,0.077,0.04,0.118C15.948,8.641,17.001,8.307,17.159,8.189L17.159,8.189z M51.936,13.534c0.199,0.066,0.396,0.131,0.596,0.197c0.159,0.002,0.327-0.002,0.432-0.04c-0.009-0.654-0.364-0.913-0.593-1.345c-0.113-0.22-0.175-0.523-0.355-0.673c0.069-0.242,0.727-0.308,0.988-0.396c0.643-0.211,1.371-0.422,2.02-0.633c0.305-0.099,0.664-0.077,0.91-0.236c0.146,0.015,0.22,0.029,0.277,0.118c0.143,0.212,0.26,1.667,0.156,2.097c-0.398,1.663-0.896,2.963-1.938,3.958v0.039c0.385-0.062,0.568-0.436,0.83-0.632c1.051-0.794,1.762-1.972,2.137-3.444c0.221-0.865-0.14-1.713,0.199-2.452h-0.039c-0.074-0.188-1.082-0.553-1.388-0.555c-0.164,0.177-0.399,0.416-0.634,0.515c-0.357,0.152-0.838,0.109-1.146,0.315c-0.287-0.024-0.506-0.57-0.315-0.791c-0.011-0.09-0.009-0.112-0.04-0.158c-0.239-0.191-0.85-0.171-1.268-0.158c-0.133,0.125-0.252,0.15-0.314,0.358h-0.039c-0.021,0.076,0.02,0.05,0.039,0.078c0.025,0.016,0.163-0.007,0.236,0.04c0.449,0.047,0.438,0.566,0.675,0.831c-0.027,0.069-0.011,0.04-0.042,0.08c-0.155,0.123-1.301,0.453-1.543,0.515c-0.185,0.046-0.414-0.068-0.553-0.081c-0.336-0.028-0.633,0.16-0.831,0.277c0.107,0.157,0.434,0.118,0.554,0.276C51.368,12.193,51.556,12.913,51.936,13.534L51.936,13.534z M59.807,12.977c0.187,0.093,0.187,0.332,0.278,0.514c0.185,0.371,0.437,0.82,0.554,1.228v0.316c0.092,0.252,0.396,0.284,0.596,0.435c0.156-0.021,0.214-0.061,0.314-0.118c-0.066-0.753-0.525-1.378-0.791-1.979c-0.08-0.188-0.207-0.452-0.236-0.633c-0.021-0.109,0.063-0.169,0-0.276c-0.051-0.123-0.072-0.085-0.156-0.159c-0.059-0.04-0.031-0.016,0-0.078c0.068-0.144,0.213-0.287,0.275-0.436c0.133-0.313,0.127-0.576,0.396-0.751c-0.04-0.41-0.639-0.457-1.107-0.435c-0.057,0.042-0.156,0.064-0.24,0.077c0.05,0.103,0.082,0.124,0.199,0.157c0.113,1.161-0.699,2.225-1.229,2.928c-0.208,0.279-0.556,0.456-0.75,0.754h-0.04v0.038C58.395,14.473,59.54,13.383,59.807,12.977L59.807,12.977z M12.407,22.83c-0.081,0.017-0.076,0.009-0.117,0.039c-0.288,0.148-0.773,1.426-1.346,1.069c-0.292,0.002-0.319-0.055-0.476-0.16c0.02-0.376,0.659-1.063,0.913-1.226c0.031-0.604,0.187-1.252,0.118-1.819c-0.041-0.014-0.08-0.028-0.118-0.039c-0.14-0.046-0.25,0.168-0.357,0.276c-0.29,0.291-0.648,0.597-0.871,0.949c-0.337-0.003-1.414-0.013-1.623,0.119H8.411c0.099-0.256,0.86-1.096,0.633-1.464c-0.013-0.041-0.025-0.08-0.04-0.12c-0.722,0.002-1.592,1.287-1.82,1.82c-0.115,0.266-0.115,0.573-0.276,0.791v0.04c0.54-0.066,1.082-0.133,1.622-0.199c0.205-0.044,0.487,0.052,0.633-0.039h0.554c0.092-0.118,0.184-0.238,0.277-0.356c0.33-0.349,0.768-0.702,1.028-1.106h0.119v0.551c-0.303,0.273-0.773,0.695-0.91,1.108v0.316c-0.203,0.88,0.223,1.329,0.99,1.267c0.5-0.466,1.324-0.848,1.226-1.779C12.405,22.833,12.444,22.873,12.407,22.83L12.407,22.83z M7.819,22.118H7.58c0.109-0.436,0.537-0.935,1.069-0.95v0.197c-0.185,0.239-0.369,0.475-0.554,0.713C7.982,22.076,7.88,22.076,7.819,22.118z M93.044,22.315c-0.164-0.405-0.294-0.722-0.475-1.068c-0.3-0.574-0.613-1.414-1.464-1.425c-0.211,0.179-0.435,0.322-0.555,0.593c-0.777,1.762,0.819,3.747,1.543,4.71c0.256,0.339,0.557,0.712,0.948,0.908c-0.091,1.376-1.269,1.813-2.53,1.267c-0.899-0.386-1.617-1.237-2.179-1.979c-0.188-0.249-0.481-0.457-0.672-0.713c-0.177-0.239-0.304-0.507-0.515-0.713v-0.039h-0.078c0.107,0.426,0.354,0.815,0.514,1.188c0.669,1.538,1.52,2.614,2.811,3.521c0.608,0.428,1.621,1.104,2.494,0.475C94.412,27.942,93.669,23.851,93.044,22.315L93.044,22.315z M92.928,24.216c-0.104,0.1-0.539-0.419-0.635-0.515c-0.441-0.443-1.329-1.221-0.83-1.979h0.197c0.388,0.403,0.746,0.788,0.99,1.344c0.129,0.299,0.152,0.805,0.313,1.069C92.941,24.205,92.958,24.175,92.928,24.216L92.928,24.216z M66.693,32.128v-0.395c0.179-0.801,0.137-1.765,0.314-2.572c0.241-1.088-0.101-2.148,0.99-2.414c0.021-0.106,0.057-0.148,0-0.238c-0.025-0.067-0.009-0.039-0.04-0.079c-0.043-0.031-0.038-0.024-0.116-0.039c-0.305,0.222-1.131,0.373-1.543,0.474c-0.313,0.076-0.639,0.01-0.871,0.158c-0.039,0.013-0.078,0.027-0.119,0.04c0.014,0.079,0.025,0.159,0.041,0.237c0.451,0.147,0.867-0.031,1.067,0.356c0.13,0.252,0.112,1.157,0.039,1.504c-0.251,1.163-0.146,2.491-0.396,3.64c-0.086,0.397,0.022,1.171-0.157,1.463v0.08c-0.241-0.115-0.397-0.426-0.554-0.633c-0.354-0.467-0.875-0.84-1.229-1.305c-0.213-0.281-0.437-0.617-0.712-0.833c0.037-0.761,0.259-1.56,0.438-2.254c0.131-0.522,0.135-1.005,0.395-1.386c0.148-0.217,0.505-0.355,0.751-0.475c-0.002-0.1-0.004-0.146-0.04-0.198c-0.014-0.04-0.023-0.079-0.037-0.119c-0.543,0.081-1.003,0.341-1.505,0.475c-0.454,0.123-0.911,0.092-1.269,0.276c0.012,0.091,0.01,0.112,0.041,0.158c0.014,0.039,0.024,0.08,0.039,0.118c1.391-0.078,1.18,0.678,0.912,1.742c-0.084,0.326-0.029,0.775-0.199,1.028v0.079h-0.039c-0.285-0.433-0.713-0.852-1.067-1.227c-0.146-0.132-0.291-0.264-0.435-0.395c-0.104-0.137-0.16-0.312-0.278-0.436c0.024-0.437,0.38-0.549,0.713-0.672c-0.015-0.183-0.052-0.206-0.118-0.317c-1.031,0.151-1.927,0.73-3.086,0.791v0.041h-0.04c0.004,0.1,0.004,0.146,0.04,0.197v0.079c0.227,0.039,0.564-0.054,0.831,0.04c0.427,0.15,0.81,0.648,1.067,0.99c0.388,0.513,0.996,0.949,1.384,1.463c0.204,0.274,0.434,0.634,0.713,0.832c-0.038,0.696-0.229,1.428-0.396,2.058c-0.086,0.323-0.035,0.735-0.197,0.988c-0.025,0.069-0.01,0.039-0.041,0.08c-0.377-0.718-1.104-1.265-1.582-1.9c-0.918-1.22-1.938-2.319-2.889-3.521c0-0.167,0.01-0.268,0.08-0.356c0.073-0.229,0.359-0.443,0.633-0.476c0.015-0.12,0.033-0.135-0.039-0.238c-0.016-0.038-0.026-0.077-0.041-0.118c-0.803,0.123-1.521,0.497-2.293,0.714c-0.401,0.112-0.928,0.057-1.229,0.276c-0.04,0.013-0.08,0.026-0.117,0.04c0.021,0.152,0.061,0.176,0.117,0.277c0.314-0.005,0.646-0.092,0.949,0c0.793,0.241,1.361,1.137,1.818,1.742c0.201,0.266,0.513,0.483,0.713,0.751c0.849,1.129,1.808,2.146,2.65,3.285c0.328,0.442,0.771,0.825,1.066,1.304c0.179-0.004,0.216-0.025,0.316-0.079c0.213-0.929,0.332-1.866,0.596-2.81c0.119-0.432,0.269-0.942,0.314-1.424c0.327,0.117,0.592,0.607,0.793,0.871c0.618,0.821,1.491,1.502,2.057,2.373c0.164-0.007,0.182-0.026,0.277-0.078C66.352,34.819,66.521,33.473,66.693,32.128L66.693,32.128z M4.297,38.894c-0.013,2.467-0.142,6.269,1.781,6.806c0.7,0.193,1.087-0.271,1.306-0.595c0.786-1.17,0.565-3.446-0.199-4.43c-0.339,0.034-0.825,0.84-0.988,1.106c-0.082-0.016-0.075-0.011-0.119-0.04c-0.091-0.041-0.085-0.066-0.159-0.118c-0.06-0.933,0.127-1.802,0.159-2.691c1.044,0.102,1.941,0.696,3.007,0.751c-0.001-0.185,0-0.434,0.077-0.552c-0.009-0.092-0.007-0.112-0.04-0.16c-0.145-0.115-0.949-0.306-1.186-0.315v-0.04h-0.04c0.146-1.174-0.186-2.082-0.99-2.414c-0.449-0.08-0.897-0.16-1.346-0.239c-0.229-0.083-0.341-0.266-0.514-0.395c-0.058-0.38-0.133-0.806,0.159-1.029c-0.021-0.142-0.032-0.168-0.119-0.238v-0.039h-0.04c-0.133,0.228-0.245,0.493-0.315,0.792c-0.234,0.983,0.309,1.818,0.909,2.018c0.397,0.065,0.792,0.132,1.188,0.197c0.314,0.122,0.453,0.379,0.671,0.595c-0.009,0.512-0.5,0.568-0.91,0.435c-0.64-0.208-1.321-0.353-1.977-0.592c-0.172-0.064-0.333-0.17-0.555-0.199c-0.027,0.25-0.054,0.501-0.08,0.751c0.554,0.171,1.109,0.343,1.662,0.515c-0.023,1.398-0.574,3.074,0.119,4.153c0.084,0.021,0.143,0.037,0.198,0.08c0.78-0.054,0.943-0.68,1.345-1.108c0.342,0.82,0.086,2.253-0.671,2.453c-0.326,0.224-0.803-0.066-0.989-0.237c-0.648-0.599-0.785-1.511-1.027-2.532c-0.083-0.344,0.033-1.042-0.118-1.307c0.006-0.404,0.092-1.134-0.12-1.344v-0.039L4.297,38.894L4.297,38.894z M99.336,45.543c-0.143-0.666,0.055-1.478-0.08-2.097v-0.633c-0.097-0.453-0.059-1.056-0.156-1.502c-0.189-0.882-0.022-1.926-0.355-2.652c-0.197-0.047-0.393-0.084-0.671-0.08c-0.103,0.104-0.179,0.158-0.159,0.278c0.083,0.359,0.547,0.432,0.673,0.792c0.015,0.172,0.026,0.343,0.04,0.514c0.133,0.561,0.111,1.286,0.236,1.86v0.475c0.063,0.289,0.16,1.036,0.078,1.267c-0.139,0.41-0.584,0.78-0.868,1.068c-0.754,0.755-1.64,1.715-2.97,1.859c-0.025,0.068-0.01,0.039-0.041,0.08c0.022,0.494,0.476,0.396,0.793,0.594c0.08-0.014,0.158-0.028,0.236-0.042c0.122-0.074,0.191-0.242,0.276-0.356c0.2-0.261,0.563-0.399,0.751-0.671h0.04c0.002,1.205,0.028,2.561,0.04,3.718h0.117c0.272-1.172,0.252-2.61,0.238-4.039c0.521-0.486,0.853-1.19,1.385-1.66v-0.078h0.041c0.007,1.251,0.037,2.529,0.037,3.797c0,0.407-0.102,1.378,0,1.544v0.237h0.08c0.106-0.425,0.133-1.023,0.236-1.501v-0.674C99.451,47.107,99.45,46.078,99.336,45.543L99.336,45.543z M28.313,48.073c-0.347-0.144-0.776-0.461-0.989-0.751c-0.637-0.875-1.337-2.948-0.87-4.51c0.379-1.266,1.202-2.127,2.532-2.454c0.673-0.163,1.397,0.062,1.821,0.278c1.208,0.622,1.725,1.506,2.096,2.967c0.48,1.887-0.132,3.619-1.385,4.194c0.078,0.764,0.158,1.529,0.237,2.295c0.444-0.013,0.852-0.105,1.227-0.199c0.629-0.155,1.271-0.176,1.86-0.315c0.431-0.104,1.052-0.015,1.384-0.237c0.079-0.17-0.247-1.35-0.315-1.623c-0.057-0.229-0.009-0.461-0.119-0.633v-0.079c-0.091,0.012-0.185,0.025-0.277,0.039c0.018,1.195-0.834,1.032-1.781,1.267c-0.473,0.119-1.049,0.27-1.581,0.276c0-0.17,0-0.343-0.001-0.514c0.045-0.083,0.739-0.386,0.868-0.476c0.461-0.318,0.931-0.826,1.229-1.304c0.202-0.327,0.366-0.764,0.473-1.149c0.138-0.489,0.154-1.17,0.041-1.662c-0.079-0.338-0.048-0.603-0.158-0.91c-0.427-1.187-1.322-2.054-2.453-2.532c-0.513-0.216-1.093-0.224-1.7-0.356c-0.539-0.116-1.509,0.124-1.901,0.238c-1.905,0.562-3.198,1.48-3.799,3.323c-0.236,0.728-0.163,1.736,0.04,2.414c0.467,1.561,1.773,3.02,3.72,3.047v0.039c0.062,0.088,0.06,0.264,0.118,0.355c-0.024,0.067-0.009,0.039-0.04,0.08c-0.164,0.111-0.404,0.061-0.633,0.117c-0.47,0.118-1.986,0.486-2.334,0.158c-0.222-0.072-0.37-0.363-0.396-0.632c-0.099,0.004-0.146,0.004-0.197,0.039h-0.082c0.146,0.767,0.291,1.53,0.435,2.296h0.041v0.04c1.385-0.239,2.77-0.478,4.154-0.713c-0.198-0.728-0.395-1.451-0.593-2.179C28.873,48.139,28.517,48.159,28.313,48.073L28.313,48.073z M96.014,43.682c0.086,0.218,0.254,0.58,0.435,0.712c0.086,0.063,0.132,0.04,0.198,0.119c1.31,0.113,1.842-2.143,1.308-3.442c-0.095-0.225-0.517-0.885-0.911-0.633h-0.08c0.026-0.069,0.01-0.038,0.04-0.08c-0.001-0.188-0.021-0.25-0.077-0.356c-0.08-0.013-0.156-0.026-0.238-0.038c-0.039,0.031-0.01,0.014-0.078,0.038c0.027,0.24,0.111,0.247,0.119,0.514C96.09,41.099,95.545,42.497,96.014,43.682z M96.446,41.585c0.088-0.213,0.265-0.35,0.396-0.515c0.082-0.015,0.075-0.01,0.117-0.04c0.301-0.001,0.385,0.057,0.555,0.159c0.301,0.711,0.346,1.954-0.156,2.494c-0.077,0.085-0.229,0.116-0.315,0.197C96.214,43.817,96.146,42.305,96.446,41.585L96.446,41.585z M78.092,57.168c-0.445-0.273-0.507-1.675-0.673-2.294c-0.327-1.215-0.483-2.489-0.831-3.72c-0.223-0.788-0.523-1.605-0.435-2.572c0.139-0.138,0.231-0.32,0.396-0.436c0.223-0.154,0.58-0.229,0.752-0.436c0.027-0.051-0.019-0.128-0.041-0.238c-0.459,0.074-0.879,0.35-1.267,0.515c-0.792,0.337-1.567,0.536-2.373,0.87c-0.252,0.104-0.515,0.282-0.833,0.315v0.238c0.027,0.014,0.055,0.025,0.08,0.04c0.042,0.045,1.033-0.392,1.346-0.118c0.356,0.125,0.311,0.59,0.514,0.872c-0.061,0.614-0.672,1.558-0.912,2.097c-0.58,1.326-1.17,2.592-1.816,3.836c-0.248,0.477-0.543,1.334-0.871,1.701v0.039c-0.216-0.296-0.199-1.051-0.314-1.462c-0.353-1.235-0.578-2.591-0.951-3.798c-0.068-0.23-0.305-1.279-0.156-1.503c0.051-0.546,0.822-0.785,1.266-0.95c-0.012-0.092-0.024-0.186-0.039-0.277c-0.701,0.105-1.429,0.479-2.058,0.713c-0.595,0.223-1.14,0.313-1.741,0.516c-0.298,0.102-0.636,0.275-0.986,0.314v0.041h-0.041c0.015,0.112,0.025,0.172,0.078,0.237c0.162,0.107,1.03-0.352,1.386-0.077c0.557,0.19,0.573,1.075,0.752,1.66c0.481,1.579,0.728,3.327,1.187,4.947c0.115,0.404,0.391,1.686,0.119,2.018c-0.148,0.439-0.885,0.615-1.306,0.791c0.014,0.08,0.024,0.159,0.036,0.237c0.609-0.09,1.162-0.373,1.707-0.56c1.063-0.354,2.066-0.65,3.089-1.029c-0.017-0.092-0.027-0.186-0.041-0.275c-0.437,0.116-0.773,0.248-1.386,0.236c-0.08-0.068-0.157-0.133-0.235-0.199c-0.067-0.21-0.134-0.422-0.199-0.632c0.043-0.499,0.683-1.421,0.91-1.86c0.673-1.293,1.262-2.6,1.856-3.955c0.229-0.519,0.754-1.275,0.832-1.857c0.184,0.111,0.133,0.438,0.197,0.672c0.135,0.475,0.211,0.98,0.355,1.503c0.281,1,0.391,2.075,0.673,3.126c0.104,0.387,0.261,1.048,0.08,1.464c-0.179,0.404-0.841,0.673-1.267,0.83c0.017,0.084,0.037,0.183,0.08,0.238c0.004,0.007,0.906-0.288,1.064-0.354c1.104-0.471,2.236-0.959,3.361-1.386c-0.015-0.093-0.024-0.187-0.039-0.274C79.117,57.043,78.477,57.407,78.092,57.168L78.092,57.168z M96.803,60.498c-0.143,0.13-0.354,0.163-0.514,0.277c-0.501,0.359-1.025,0.962-1.385,1.463c-0.288,0.402-0.534,0.843-0.791,1.268c-0.112,0.188-0.137,0.402-0.277,0.553v0.08c0.346-0.059,0.549-0.283,0.792-0.436c0.659-0.408,1.249-0.781,1.858-1.225c0.295-0.217,0.515-0.551,0.83-0.754c0.029-0.473,0.125-0.844-0.077-1.188C97.115,60.512,96.975,60.496,96.803,60.498z M96.329,61.921c-0.239,0.177-0.47,0.423-0.712,0.595c-0.208,0.146-0.458,0.224-0.633,0.396h-0.04c0.13-0.408,0.817-1.107,1.146-1.344c0.17-0.124,0.383-0.157,0.557-0.279h0.156c0.036,0.046,0.034,0.044,0.08,0.08C96.846,61.667,96.523,61.774,96.329,61.921L96.329,61.921z M10.825,63.465c-0.166-0.502-0.278-0.99-0.435-1.465c-0.079-0.246-0.062-0.525-0.199-0.713v-0.118c0.269,0.097,0.679,0.087,0.911,0.238h0.201c-0.045-0.206-0.086-0.552-0.201-0.713c-0.12-0.195-0.886-0.197-1.106-0.354c-0.312-0.244-0.607-0.947-0.832-1.307c-0.56-0.887-1.302-1.832-2.137-2.453c-0.443-0.329-0.751-0.671-1.544-0.673c-0.092,0.065-0.185,0.132-0.276,0.198c-0.178,0.789,0.139,2.248,0.592,2.611v0.078c-0.189-0.051-0.393-0.152-0.514-0.275h-0.04c0.007,0.227,0.051,0.522,0.158,0.672c0.046,0.195,0.362,0.354,0.554,0.396c0.248,1.037,0.592,2.101,0.95,3.05c0.289,0.758,0.436,1.48,0.75,2.213c0.155,0.356,0.522,0.617,0.634,0.99h0.117c-0.089-0.334-0.271-0.646-0.394-0.949c-0.364-0.875-0.653-1.804-0.952-2.688C6.868,61.62,6.734,61.057,6.548,60.5c-0.069-0.21-0.049-0.427-0.158-0.595v-0.039c0.269,0.049,0.43,0.188,0.634,0.276c0.461,0.201,0.903,0.277,1.385,0.476c0.353,0.146,0.796,0.347,1.228,0.396c0.048,0.359,0.253,1.301,0.435,1.545v0.117c-0.602-0.412-0.589-1-1.663-0.91c-0.054,0.063-0.128,0.117-0.197,0.158c-0.098,0.244-0.104,0.646,0,0.909c0.257,0.646,1.072,1.991,1.741,2.179c0.257,0.184,0.634-0.043,0.75-0.24c0.242,0.127,0.293,0.682,0.395,0.951c0.212,0.558,0.522,1.289,1.031,1.543v0.041h0.083c-0.066-0.447-0.318-0.851-0.475-1.229C11.387,65.223,11.113,64.324,10.825,63.465L10.825,63.465z M9.678,60.26C9.26,60.23,8.905,60.067,8.57,59.945c-0.894-0.332-1.703-0.615-2.492-0.991c-0.095-0.358-0.76-1.644-0.396-2.095c0.026-0.04,0.053-0.081,0.079-0.12c0.081-0.019,0.077-0.011,0.119-0.039c1.219,0.146,2.442,1.629,3.046,2.452c0.236,0.32,0.43,0.799,0.752,1.029V60.26L9.678,60.26z M10.311,63.701c-0.12,0.146-0.237,0.291-0.356,0.436c-0.105,0.078-0.223,0.109-0.316,0.198c-0.68-0.021-0.704-0.686-0.989-1.108c0.005-0.389,0.152-0.39,0.315-0.594c0.092-0.007,0.112-0.007,0.158-0.037c0.614,0.004,0.753,0.278,1.109,0.515C10.29,63.344,10.327,63.445,10.311,63.701L10.311,63.701z M33.578,69.794c-0.165-0.271-0.49-0.342-0.713-0.554c-0.069-0.023-0.04-0.007-0.079-0.039c0.51-0.264,1.053-0.555,1.583-0.79c0.142,0.158,0.801,0.792,1.029,0.671c0.04-0.012,0.079-0.023,0.118-0.038c-0.013-0.224-0.025-0.448-0.04-0.673c-0.499-0.498-1.234-0.91-2.059-1.066v0.039h-0.039c0.093,0.273,0.398,0.534,0.636,0.672v0.119c-0.469,0.068-0.885,0.295-1.307,0.437c-0.289,0.093-0.638,0.08-0.873,0.235h-0.117c0.171-0.479,0.737-0.871,1.028-1.267c0.576-0.776,1.033-1.728,1.94-2.176c-0.024-0.365-1.076-1.12-1.464-0.871c-0.097,0.051-0.029-0.021-0.079,0.078c-0.059,0.144,0.137,0.321,0.079,0.554c-0.076,0.305-0.831,1.74-1.029,1.9v0.041c-0.408-0.139-0.718-0.523-1.107-0.713c0.069-0.364,0.375-0.644,0.554-0.91c0.453-0.684,0.816-1.335,1.503-1.782c-0.006-0.526-0.855-1.075-1.425-1.065c0.002,0.242,0.125,0.379,0.08,0.592c-0.14,0.646-0.435,1.297-0.672,1.861c-0.156,0.364-0.226,0.799-0.476,1.065c-0.054,0.03-0.492-0.006-0.594-0.077c-0.149-0.002-0.298,0.005-0.394,0.038v0.079c0.666,0.645,1.387,0.865,2.295,1.268c-0.126,0.655-0.786,1.092-1.108,1.584c-0.166,0-0.3-0.011-0.395-0.08c-0.091,0.017-0.098,0.021-0.158,0.041c0.016,0.582,0.5,1.077,0.987,1.188c0.327-0.366,0.737-0.543,1.228-0.751c0.449,0.468,0.578,1.137,0.751,1.897c0.075,0.332-0.047,0.697,0.04,0.988c0.152,0.514,0.426,0.667,0.672,1.027h0.277c0.174-0.93-0.253-1.832-0.475-2.571C33.71,70.43,33.644,70.111,33.578,69.794L33.578,69.794z M96.09,63.108c-0.238,0.202-0.57,0.296-0.83,0.475c-0.4,0.282-0.758,0.659-1.146,0.95c-0.177,0.134-0.435,0.253-0.556,0.436c-0.199,0.299-0.16,0.806-0.396,1.067v0.157c0.314-0.114,0.464-0.483,0.713-0.672c0.307-0.23,0.563-0.536,0.87-0.754c0.192-0.133,0.411-0.207,0.594-0.355c0.125,0.023,0.115,0.037,0.199,0.081c-0.021,1.005-0.549,1.714-0.871,2.454c-0.093,0.215-0.121,0.551-0.276,0.71c-0.074,0.076-0.229,0.094-0.314,0.157c-0.264,0.291-0.528,0.58-0.794,0.873c-0.25,0.344-0.365,0.803-0.632,1.146c-0.002,0.114-0.002,0.216,0.037,0.276c0.041,0.031,0.11,0.059,0.16,0.08c0.51-0.483,1.004-0.887,1.424-1.465c0.658-0.904,0.986-2.047,1.465-3.125c0.3-0.683,0.734-1.354,0.711-2.334c-0.047-0.045-0.084-0.102-0.117-0.158L96.09,63.108L96.09,63.108z M93.32,69.361V69.4h-0.04c0.069-0.475,0.43-0.606,0.596-0.952h0.079C93.904,68.842,93.605,69.194,93.32,69.361L93.32,69.361z M34.171,69.993c-0.08,0.342,0.76,1.106,1.027,1.308c0.133,0.1,0.312,0.328,0.515,0.235c0.104-0.008,0.136-0.019,0.199-0.04c0.046-0.105,0.115-0.24,0.039-0.354C35.93,70.645,34.64,70.088,34.171,69.993z M37.97,73.037c0.067,0.034,0.122,0.021,0.198-0.039c0.139-0.113,0.063-0.313,0.159-0.475c0.222-0.159,0.615-0.118,0.911-0.199c0.809-0.213,1.753-0.198,2.65-0.396c0.425-0.093,1.128,0.16,1.464-0.037c0.04-0.016,0.081-0.026,0.118-0.043c-0.019-0.517-1.009-0.737-1.545-0.588c-0.237,0.066-0.513,0.213-0.751,0.275c-0.185,0.014-0.37,0.027-0.555,0.038c-0.062-0.644-0.38-1.144-0.395-1.817c0.595-0.013,1.341-0.091,1.739-0.316c-0.008-0.2-0.045-0.2-0.118-0.314c-0.453-0.107-1.23-0.126-1.583,0.116c-0.1-0.004-0.147-0.004-0.197-0.039c-0.221-0.28-0.116-0.851-0.316-1.146v-0.158c0.426-0.092,1.122-0.168,1.345-0.475c0.031-0.041,0.014-0.011,0.039-0.078c-0.036-0.035-0.051-0.068-0.079-0.119c-0.619-0.156-0.887-0.049-1.423,0.158c-0.167-0.535,0.034-0.959-0.514-1.108c0.117-0.203,0.506-0.194,0.751-0.276c0.382-0.126,0.817-0.296,1.148-0.474c0.026-0.068,0.007-0.04,0.04-0.08c-0.022-0.2-0.078-0.193-0.159-0.316c-0.571-0.044-1.027,0.011-1.346,0.316h-0.076c0.047-0.295,0.231-0.718,0.394-0.949c0.112-0.162,0.318-0.14,0.396-0.356h0.04V64.1c-0.081-0.104-0.159-0.211-0.238-0.314c-0.186-0.13-0.454-0.143-0.632-0.279c-0.263-0.004-0.515-0.003-0.672,0.079c0.021,0.152,0.089,0.248,0.119,0.356c0.109,0.408-0.284,1.669-0.436,1.859c-0.123,0.154-1.551,0.672-1.939,0.555c-0.092-0.029-0.36-0.164-0.435-0.239c-0.032-0.039-0.015-0.008-0.04-0.077c0.561-0.527,0.965-1.702,1.741-1.939c0.014-0.064,0.027-0.131,0.041-0.196c-0.194-0.2-1.135-1.188-1.622-0.871c-0.04,0.014-0.079,0.022-0.117,0.038c0,0.338,0.168,0.593,0.078,0.949c-0.182,0.711-0.587,1.556-0.95,2.139c-0.218,0.35-0.693,0.729-0.712,1.229c0.646-0.064,0.802-0.731,1.304-0.912c0.146,0.135,0.29,0.267,0.436,0.396c0.207,0.311,0.168,0.778,0.276,1.186c0.185,0.856,0.371,1.715,0.554,2.571c0.025,0.425,0.052,0.845,0.08,1.269C37.246,72.28,37.561,72.945,37.97,73.037L37.97,73.037z M39.233,70.032c0.031,0.368,0.258,1.407,0.436,1.662c0.001,0.024,0.001,0.054,0.001,0.08c-0.477,0.102-0.973,0.239-1.504,0.237c-0.082-0.564-0.352-1.061-0.355-1.662C38.418,70.338,38.731,70.094,39.233,70.032z M36.939,66.75c0.063-0.107,1.113-0.273,1.228-0.199c0.42,0.195,0.27,0.813,0.514,1.188c-0.083,0.194-1.047,0.487-1.345,0.514C37.283,67.834,37.213,66.977,36.939,66.75L36.939,66.75z M38.76,68.253h0.04c0.076,0.36,0.119,0.978,0.317,1.267c-0.142,0.348-1.016,0.317-1.346,0.516c-0.138-0.083-0.32-1.076-0.316-1.346C37.757,68.662,38.541,68.402,38.76,68.253L38.76,68.253z M31.914,70.506c-0.06,0.135-0.053,0.354-0.117,0.514c-0.342,0.84-0.454,1.015,0.079,1.82c0.237,0,0.269-0.037,0.396-0.119C32.429,72.064,32.454,70.814,31.914,70.506L31.914,70.506z M77.023,70.744c-1.154-0.285-2.125,0.285-3.325,0.199c-0.114-0.121-0.2-0.19-0.275-0.356c-0.835,0.024-1.757,1.886-0.909,2.453c0.453,0.308,1.744,0.129,2.295,0c0.306-0.071,0.783-0.139,1.027,0.038c0.332,0.247,0.273,1.182,0.157,1.703c-0.132,0.975-0.265,1.951-0.396,2.929c-0.117,0.593-0.236,1.185-0.356,1.779c0.606-0.003,1.178-0.623,1.349-1.069c0.1-0.258,0.047-0.502,0.119-0.791c0.209-0.83,0.237-1.82,0.436-2.689c0.127-0.563,0.041-1.1,0.156-1.621c0.086-0.393,0.143-1.696,0.041-2.059C77.281,71.059,77.126,70.901,77.023,70.744z M22.857,82.695c-0.135-0.102-0.229-0.283-0.356-0.395c-0.473-0.42-1.029-0.826-1.543-1.188c-0.426-0.298-1.008-0.476-1.387-0.829c-0.01-0.086,0.123-0.296,0.041-0.516c-0.335-0.896-1.589-1.933-2.374-2.412c-0.363-0.225-0.972-0.328-1.305-0.555c-0.246-0.017-0.374-0.025-0.435,0.155c-0.097,0.218,0.209,0.521,0.315,0.675c0.271,0.381,0.581,0.826,0.95,1.104c0.276,0.209,0.591,0.392,0.83,0.635h0.119c-0.154-0.426-0.609-0.657-0.949-0.909c-0.311-0.229-0.449-0.632-0.712-0.909c0.021-0.125,0.035-0.115,0.08-0.199c1.093,0.009,1.802,1.012,2.294,1.662c0.22,0.291,0.571,0.461,0.594,0.951c-0.116,0-0.216,0-0.276-0.041h-0.119c0.188,0.522,0.824,0.479,1.267,0.754c0.888,0.549,1.603,1.409,2.373,2.094c0.262,0.234,0.719,0.466,0.791,0.873c-0.537-0.028-0.917-0.327-1.261-0.555c-0.614-0.4-1.597-1.1-2.019-1.662c-0.08-0.104-0.106-0.263-0.199-0.355c-0.109-0.111-0.261-0.145-0.355-0.275h-0.158c-0.039,0.41,0.407,0.705,0.671,0.948c0.819,0.75,1.696,1.442,2.73,1.979c0.373,0.191,1.053,0.521,1.465,0.275C23.874,83.434,23.227,82.975,22.857,82.695L22.857,82.695z M47.226,85.307c-2.014-1.379-4.985-2.775-8.427-2.689c-0.167,0.104-0.503,0.021-0.711,0.078c-0.288,0.076-0.464,0.223-0.672,0.355c-0.008,0.971,1.446,1.496,2.255,1.698c0.483,0.123,0.909-0.104,1.188-0.198c0.215-0.82-0.776-0.94-1.227-1.347h-0.081v-0.038c3.036-0.119,5.308,0.729,7.043,2.02c0.433,0.322,0.93,0.783,1.148,1.306c0.081,0.194,0.116,0.515,0,0.674c-0.159,0.44-0.685,0.401-1.188,0.515c-1.162,0.267-2.755-0.391-3.285-0.91c-0.108,0.189,0.049,0.48-0.118,0.674c-0.176,0.478-0.788,0.354-1.346,0.474c-0.917,0.199-2.353-0.271-2.888-0.632c-0.149-0.104-0.257-0.286-0.396-0.396c-0.007-0.103-0.018-0.136-0.041-0.199c0.081-0.073,0.177-0.187,0.237-0.275c1.139-0.085,1.718-0.027,2.376,0.596c-0.017,0.078-0.01,0.073-0.041,0.114c-0.074,0.152-0.245,0.17-0.474,0.161v0.074c0.417,0.004,0.593-0.059,0.83-0.197c0.013-0.079,0.027-0.159,0.04-0.236c-0.136-0.141-0.231-0.328-0.396-0.438c-0.65-0.426-1.991-0.641-2.729-0.156c-0.116,0.561,0.232,0.864,0.554,1.105c0.646,0.488,1.191,0.771,2.098,1.029c0.291,0.082,0.55,0.008,0.871,0.076c0.28,0.064,0.765,0.079,1.068,0c0.504-0.128,1.205-0.658,0.632-1.268v-0.037c0.299,0.109,0.544,0.402,0.831,0.556c0.761,0.397,2.021,0.726,3.167,0.476c0.562-0.125,1.143-0.125,1.303-0.635c0.179-0.277-0.068-0.668-0.156-0.826C48.322,86.151,47.836,85.721,47.226,85.307L47.226,85.307z M39.906,83.485c0.14,0.094,0.22,0.291,0.356,0.396c-0.003,0.1-0.004,0.148-0.04,0.199c-0.257,0.697-1.706,0.182-2.058-0.081c-0.11-0.08-0.153-0.248-0.236-0.354c0.015-0.082,0.01-0.076,0.041-0.116c0.108-0.306,0.417-0.203,0.671-0.354C39.142,83.174,39.596,83.274,39.906,83.485z M76.625,83.881h-0.396c-0.262,0.209-0.692,0.236-0.991,0.396c-0.263,0.141-0.581,0.332-0.829,0.515c-0.207,0.148-0.326,0.418-0.516,0.592c0.004,0.197,0.008,0.229,0.16,0.277c0.039,0.029,0.01,0.018,0.075,0.04c0.042-0.047,0.08-0.063,0.12-0.12c0.033-0.023-0.027-0.104-0.04-0.232c0.384-0.386,0.667-0.598,1.228-0.832c0.144-0.059,0.447-0.233,0.634-0.119h0.079c-0.026,0.391-0.916,1.591-1.188,1.781v0.115c0.729-0.188,1.215-1.643,1.702-2.174c-0.013-0.09-0.01-0.111-0.04-0.157L76.625,83.881L76.625,83.881z M73.459,86.809c-0.234,0.209-0.807,0.229-1.066,0.435h-0.041c0.104-0.149,0.291-0.213,0.396-0.354c0.076-0.104,0.107-0.226,0.197-0.315c-0.018-0.081-0.01-0.075-0.039-0.117v-0.08c-1.155-0.212-3.084,0.784-3.68,1.308c-0.155,0.135-0.248,0.336-0.396,0.477c0.003,0.111,0.016,0.168,0.039,0.236c0.701,0.047,2.016-0.383,2.174-0.949c0.031-0.025,0.012-0.002,0-0.04v-0.079c-0.479-0.027-1.124,0.075-1.422,0.355h-0.039c0.26-0.396,1.223-0.746,1.739-0.91c0.172-0.053,0.55-0.149,0.714-0.039c0.037,0.015,0.077,0.025,0.117,0.039c-0.094,0.396-0.657,0.838-1.029,0.949v0.08c0.607-0.141,1.163-0.416,1.7-0.634c0.368-0.149,0.786-0.188,1.108-0.396c0.229-0.149,1.008-1.207,1.068-1.504C74.086,85.409,74.012,86.313,73.459,86.809L73.459,86.809z M70.333,87.6v0.119c-0.075,0.049-0.129,0.156-0.198,0.196c-0.205,0.12-0.479,0.106-0.674,0.238c-0.09-0.011-0.109-0.009-0.156-0.041h-0.039C69.373,87.775,70.025,87.621,70.333,87.6L70.333,87.6z M53.835,91.317c0.015-0.037,0.025-0.078,0.039-0.117c-0.976-0.04-1.953-0.079-2.927-0.119c-0.123,0.082-0.312,0.035-0.475,0.079c-0.202,0.059-0.426,0.15-0.593,0.239c0.026,0.067,0.008,0.038,0.04,0.077c0.238,0.188,1.624,0.199,1.9,0h0.078v-0.077c-0.419-0.134-1.183,0.2-1.503,0h-0.041v-0.041c1.052-0.073,2.23-0.044,3.325-0.04c-0.105,0.072-0.328,0.051-0.436,0.119c-0.039,0.014-0.078,0.027-0.117,0.039v0.08c0.238,0.037,0.475,0.078,0.711,0.117c0.037,0.041-0.004,0.004,0.039,0.037c-0.35,0.233-1.254,0.139-1.581-0.037v-0.08c-0.178-0.082-0.991,0.084-1.148,0.117c-0.133,0.03-0.27-0.014-0.357,0.039c-0.165,0.01-0.181,0.029-0.276,0.079c0.022,0.128,0.035,0.115,0.08,0.198c0.255,0.06,0.696,0.064,0.987,0.156v-0.039h0.04v-0.039c-0.148-0.057-0.559-0.025-0.713-0.115h-0.079c0.132-0.104,1.425-0.278,1.663-0.119c0.067,0.023,0.039,0.007,0.079,0.039c-0.211,0.038-0.424,0.08-0.634,0.117c0.025,0.066,0.009,0.039,0.04,0.078c0.065,0.045,0.193,0.045,0.316,0.039c-0.04,0.074-0.054,0.109-0.119,0.158c0.013,0.023,0.027,0.051,0.04,0.078c0.561,0,1.031-0.057,1.502-0.156c0.28-0.062,0.624,0.052,0.831-0.08h0.317v-0.078c-0.539-0.002-1.885-0.055-2.215,0.158h-0.117c0.033-0.043-0.004-0.004,0.038-0.041c0.155-0.18,0.471-0.09,0.75-0.156c0.44-0.104,1.168-0.284,1.544,0c0.105,0.064,0.04-0.008,0.039,0.117c0.107-0.002,0.181-0.002,0.236-0.036h0.277v-0.081c-0.359-0.088-0.889-0.251-1.188-0.434C54.057,91.488,54.135,91.344,53.835,91.317L53.835,91.317z M13.635,18.359c-0.088,0.32-0.274,0.593-0.395,0.87c-0.268,0.613-0.507,1.225-0.751,1.822c-0.207,0.496-0.335,1.295-0.633,1.699v0.079c0.416-0.074,0.698-0.493,0.949-0.751c0.617-0.634,1.92-2.22,1.9-3.402c-0.062-0.061-0.119-0.162-0.159-0.237C14.3,18.38,13.982,18.353,13.635,18.359z M13.794,20.022c-0.181,0.298-0.281,0.592-0.476,0.871c-0.178,0.255-0.46,0.452-0.633,0.713h-0.041c0.051-0.302,0.214-0.546,0.319-0.792c0.235-0.561,0.396-1.118,0.671-1.621c0.152,0.003,0.268,0.015,0.356,0.078c0.095,0.052,0.028-0.018,0.079,0.08C14.15,19.548,13.89,19.862,13.794,20.022L13.794,20.022z M84.023,7.875c-0.414-0.416-0.729-0.938-1.147-1.346V6.49c-0.205,0.073-0.899,0.688-1.028,0.871c-0.25-0.095-0.391-0.365-0.594-0.514c-0.676-0.508-1.313-1.167-2.49-1.147c-0.148,0.115-0.367,0.118-0.556,0.197c-0.53,0.23-1.083,0.688-1.305,1.227c-0.249,0.602,0.004,1.491,0.196,1.939c0.392,0.904,1.03,1.667,1.582,2.414c0.457,0.615,0.973,1.252,1.819,1.464c0.956,0.238,1.422-0.884,1.781-1.308c0.37-0.435,1.182-0.539,1.464-1.107c0.104-0.207,0.034-0.615-0.039-0.791c-0.18-0.426-1.066-1.622-1.425-1.859c0.024-0.239,0.135-0.247,0.235-0.396c0.248,0.121,0.338,0.471,0.516,0.673c0.227,0.258,0.546,0.396,0.791,0.632c0.378,0.003,0.604-0.094,0.79-0.277h0.041C84.561,8.243,84.212,8.06,84.023,7.875L84.023,7.875z M81.77,12.148c-0.699,0.165-1.047-0.293-1.424-0.673c-0.938-0.935-1.57-2.093-2.298-3.244c-0.247-0.396-0.885-1.134-0.554-1.702h0.156c0.199,0.299,0.539,0.507,0.754,0.792c0.591,0.784,1.313,1.469,1.898,2.255c0.359,0.485,0.758,0.94,1.106,1.424c0.178,0.249,0.315,0.565,0.556,0.751C81.924,11.931,81.848,12.015,81.77,12.148L81.77,12.148z M82.361,9.339c0.32,0.439,0.755,0.688,0.751,1.463c-0.122,0.116-0.157,0.224-0.356,0.276c-0.039,0.032-0.011,0.015-0.078,0.041c-0.56-0.932-1.367-1.711-2.017-2.573c-0.212-0.282-0.541-0.511-0.752-0.791c-0.362-0.48-0.793-0.864-1.188-1.305c-0.113-0.131-0.168-0.257-0.313-0.357c0.033-0.086,0.031-0.057,0.076-0.118c0.672,0.006,0.994,0.458,1.386,0.753C80.837,7.453,81.648,8.354,82.361,9.339L82.361,9.339z"
     id="path958" />
  <radialGradient
     id="SVGID_43_"
     cx="251.8086"
     cy="-408.3613"
     r="72.7509"
     gradientTransform="matrix(1,0,0,-1,-227.59322,-379.26232)"
     gradientUnits="userSpaceOnUse">
    <stop
       offset="0"
       stop-color="#000"
       stop-opacity="0"
       id="stop960" />
    <stop
       offset=".8022"
       stop-color="#000"
       stop-opacity=".08"
       id="stop962" />
    <stop
       offset="1"
       stop-color="#000"
       stop-opacity=".3882"
       id="stop964" />
  </radialGradient>
  <metadata
     id="metadata2793">
    <rdf:RDF>
      <cc:Work
         rdf:about="">
        <dc:title>Wikipedia logo version 2</dc:title>
      </cc:Work>
    </rdf:RDF>
  </metadata>
</svg>
